<svg width="160" height="30" viewBox="0 0 160 30" fill="none" xmlns="http://www.w3.org/2000/svg">
<path d="M68.791 25.2207H67.0567C62.2009 25.2207 58.2411 21.1912 58.2411 16.2171V5.02887C58.2411 3.62665 59.3539 2.50488 60.7124 2.50488C62.0853 2.50488 63.1836 3.64141 63.1836 5.02887V16.2171C63.1836 18.3868 64.9179 20.158 67.0423 20.158H68.7765C70.1494 20.158 71.2478 21.2945 71.2478 22.682C71.2622 24.0842 70.1639 25.2207 68.791 25.2207Z" fill="#F44A4A"/>
<path d="M7.44272 24.5418H2.89038C1.51745 24.5418 0.419105 23.4052 0.419105 22.0178C0.419105 20.6156 1.5319 19.4938 2.89038 19.4938H7.44272C7.54388 19.4938 9.95735 19.479 9.95735 17.8407C9.95735 17.7816 9.9429 16.3647 8.35319 16.3647C5.99753 16.3647 3.33839 15.8333 2.03772 14.741C1.1128 13.9587 0 12.5123 0 10.0326C0 6.9034 2.10998 3.53809 6.73458 3.53809H11.3736C12.7466 3.53809 13.8449 4.67462 13.8449 6.06207C13.8449 7.44953 12.7321 8.58606 11.3736 8.58606H6.73458C6.24321 8.58606 4.957 8.58606 4.957 10.0178C4.957 10.5787 5.83856 11.2872 8.33874 11.2872C12.4431 11.2872 14.8999 14.6082 14.8999 17.8259C14.9143 21.7226 11.7783 24.5418 7.44272 24.5418Z" fill="#F44A4A"/>
<path d="M52.7638 24.9993C51.3909 24.9993 50.2925 23.8628 50.2925 22.4753V12.2613C50.2925 10.8591 51.4053 9.7373 52.7638 9.7373C54.1223 9.7373 55.2351 10.8738 55.2351 12.2613V22.4606C55.2351 23.8628 54.1223 24.9993 52.7638 24.9993Z" fill="#F44A4A"/>
<path d="M67.7504 14.5934H61.9408C60.5678 14.5934 59.4695 13.4568 59.4695 12.0694C59.4695 10.6819 60.5823 9.54541 61.9408 9.54541H67.7504C69.1233 9.54541 70.2217 10.6819 70.2217 12.0694C70.2217 13.4568 69.1233 14.5934 67.7504 14.5934Z" fill="#F44A4A"/>
<path d="M82.3469 25.2207H80.6126C75.7568 25.2207 71.797 21.1912 71.797 16.2171V5.02887C71.797 3.62665 72.9098 2.50488 74.2683 2.50488C75.6412 2.50488 76.7395 3.64141 76.7395 5.02887V16.2171C76.7395 18.3868 78.4738 20.158 80.5982 20.158H82.3324C83.7054 20.158 84.8037 21.2945 84.8037 22.682C84.8326 24.0842 83.7198 25.2207 82.3469 25.2207Z" fill="#F44A4A"/>
<path d="M105.311 25.2208C103.938 25.2208 102.84 24.0843 102.84 22.6969V18.4312C102.84 13.4718 106.785 9.42749 111.655 9.42749H113.389C114.762 9.42749 115.861 10.564 115.861 11.9515C115.861 13.3389 114.748 14.4755 113.389 14.4755H111.655C109.531 14.4755 107.797 16.2467 107.797 18.4164V22.6821C107.782 24.0843 106.684 25.2208 105.311 25.2208Z" fill="#F44A4A"/>
<path d="M45.1332 25.1026C43.7603 25.1026 42.662 23.9661 42.662 22.5786V17.5011C42.662 12.3055 36.4043 12.4236 36.4043 17.7373C36.4043 19.1395 35.2915 20.2613 33.933 20.2613C32.5746 20.2613 31.4329 19.1395 31.4329 17.752C31.4329 5.70775 47.6045 5.58967 47.6045 17.5159V22.5934C47.6045 23.9808 46.5062 25.1026 45.1332 25.1026Z" fill="#F44A4A"/>
<path d="M81.3063 14.5934H75.4967C74.1237 14.5934 73.0254 13.4568 73.0254 12.0694C73.0254 10.6819 74.1382 9.54541 75.4967 9.54541H81.3063C82.6792 9.54541 83.7776 10.6819 83.7776 12.0694C83.7776 13.4568 82.6792 14.5934 81.3063 14.5934Z" fill="#F44A4A"/>
<path d="M97.3045 25.575H93.2147C88.8357 25.575 85.2661 21.9293 85.2661 17.4569C85.2661 12.9846 88.8357 9.33887 93.2147 9.33887C96.7554 9.33887 100.701 11.9219 100.918 16.1138C100.961 16.8075 100.715 17.4865 100.238 17.9883C99.7758 18.4902 99.1255 18.7854 98.4462 18.7854H95.05C93.6771 18.7854 92.5788 17.6488 92.5788 16.2614C92.5788 15.5381 92.8823 14.8739 93.3592 14.4164C91.6394 14.3278 90.2231 15.7448 90.2231 17.4717C90.2231 19.1544 91.5671 20.5271 93.2147 20.5271H97.3045C98.6775 20.5271 99.7758 21.6636 99.7758 23.051C99.7758 24.4385 98.6775 25.575 97.3045 25.575Z" fill="#F44A4A"/>
<path d="M52.7639 8.08414C54.2085 8.08414 55.3797 6.88803 55.3797 5.41255C55.3797 3.93708 54.2085 2.74097 52.7639 2.74097C51.3192 2.74097 50.1481 3.93708 50.1481 5.41255C50.1481 6.88803 51.3192 8.08414 52.7639 8.08414Z" fill="#F44A4A"/>
<path d="M33.9186 25.0732C32.5457 25.0732 31.4473 23.9366 31.4473 22.5492V4.34991C31.4473 2.9477 32.5601 1.82593 33.9186 1.82593C35.2915 1.82593 36.3899 2.96246 36.3899 4.34991V22.5344C36.3899 23.9366 35.2915 25.0732 33.9186 25.0732Z" fill="#F44A4A"/>
<path d="M24.3803 24.7633C20.0014 24.7633 16.4318 21.1175 16.4318 16.6452C16.4318 12.1729 20.0014 8.5271 24.3803 8.5271C25.3486 8.5271 27.184 8.68946 28.6002 9.78171C29.6986 10.623 29.9154 12.2024 29.0916 13.3241C28.2679 14.4459 26.7215 14.6673 25.6232 13.826C25.522 13.7522 25.074 13.5898 24.3803 13.5898C22.7328 13.5898 21.3888 14.9625 21.3888 16.6452C21.3888 18.3278 22.7328 19.7005 24.3803 19.7005C24.3803 19.7005 25.3919 19.7005 26.9672 19.7005C28.7448 19.7005 29.5685 20.9109 29.5685 22.2688C29.5685 23.6267 28.3257 24.7633 26.9672 24.7633C25.9411 24.7633 24.3803 24.7633 24.3803 24.7633Z" fill="#F44A4A"/>
<path d="M155.257 13.206C155.257 10.6525 152.843 8.40893 149.23 7.15431C149.302 6.80007 149.346 6.43107 149.346 6.0473C149.346 4.11372 147.756 2.84435 145.039 2.84435C142.149 2.84435 140.92 1.50118 142.452 0.0104021C138.55 -0.18148 135.559 2.29822 135.559 6.0473C135.559 9.33881 138.608 11.479 141.628 12.4237C137.177 12.4237 134.764 10.1801 134.085 7.80376C131.281 8.92553 129.662 11.11 129.662 13.5012C129.662 16.9551 132.09 19.3019 133.738 19.8628C131.209 19.8628 128.954 17.8407 128.752 15.3757C126.598 16.7484 125.327 18.4753 125.327 20.3351C125.327 26.0916 133.001 29.1765 142.467 29.1765C151.933 29.1765 159.607 26.1359 159.607 20.3351C159.607 18.5934 158.479 16.9698 156.557 15.6414C155.257 18.0178 148.276 21.3536 141.007 18.372C146.658 19.6414 155.257 17.6488 155.257 13.206Z" fill="#F44A4A"/>
</svg>
